# xmcd
# 
# Track frame offsets:
#     150
#     39380
#     64900
#     83490
#     124440
#     156855
#     187245
# 
# Disc length: 3137
# 
# Revision: 0
# Processed by: cddbd v1.5.2PL0 Copyright (c) Steve Scherf et al.
# Submitted via: BonkEnc v1.0
# 
DISCID=5d0c3f07
DTITLE=Lange, David - Return of the Comet
DYEAR=0
DGENRE=
TTITLE0=Tales of Snow
TTITLE1=Stardate 342.1
TTITLE2=Return of the Comet
TTITLE3=Star Rains
TTITLE4=Behind the Sun
TTITLE5=Farewell to the Planet
TTITLE6=Safe Journey
EXTD=
EXTT0=
EXTT1=
EXTT2=
EXTT3=
EXTT4=
EXTT5=
EXTT6=
PLAYORDER=
